<svg width="100" height="100" viewBox="0 0 100 100" fill="none" xmlns="http://www.w3.org/2000/svg">
<rect width="100" height="100" fill="#1E1E1E"/>
<rect width="100" height="100" fill="#0A0A0A"/>
<g filter="url(#filter0_i_0_1)">
<path d="M14 58H61V65H14V58Z" fill="#EB373A"/>
</g>
<circle cx="39" cy="57" r="25" fill="#EB373A"/>
<circle cx="39" cy="57" r="25" fill="#EB373A"/>
<circle cx="39.5" cy="57.5" r="19.5" fill="#0A0A0A"/>
<path d="M14 58H61V65H14V58Z" fill="#EB373A"/>
<path d="M9 64H71V84H9V64Z" fill="#0A0A0A"/>
<path d="M36 81L36 19H64V81H36Z" fill="#0A0A0A"/>
<g filter="url(#filter1_i_0_1)">
<path d="M85 58H38V65H85V58Z" fill="#EB373A"/>
</g>
<circle cx="25" cy="25" r="25" transform="matrix(-1 0 0 1 87 32)" fill="#EB373A"/>
<path d="M43 57.1146C43 67.8841 51.7304 76.6146 62.5 76.6146C73.2696 76.6146 82 67.8841 82 57.1146C82 46.345 73.2696 37.6146 62.5 37.6146C51.7304 37.6146 43 46.345 43 57.1146Z" fill="#0A0A0A"/>
<path d="M87 58H40V65H87V58Z" fill="#EB373A"/>
<path d="M90 64H28V84H90V64Z" fill="#0A0A0A"/>
<path d="M63 80L63 18H35V80H63Z" fill="#0A0A0A"/>
<path d="M39 58H59V64H39V58Z" fill="#EB373A"/>
<path d="M14 66H87V69H14V66Z" fill="#EB373A"/>
<path d="M39 45H59V51H39V45Z" fill="#EB373A"/>
<path d="M39 32H59V38H39V32Z" fill="#EB373A"/>
<path d="M39 60V32H45V60H39Z" fill="#EB373A"/>
<defs>
<filter id="filter0_i_0_1" x="14" y="58" width="47" height="11" filterUnits="userSpaceOnUse" color-interpolation-filters="sRGB">
<feFlood flood-opacity="0" result="BackgroundImageFix"/>
<feBlend mode="normal" in="SourceGraphic" in2="BackgroundImageFix" result="shape"/>
<feColorMatrix in="SourceAlpha" type="matrix" values="0 0 0 0 0 0 0 0 0 0 0 0 0 0 0 0 0 0 127 0" result="hardAlpha"/>
<feOffset dy="4"/>
<feGaussianBlur stdDeviation="2"/>
<feComposite in2="hardAlpha" operator="arithmetic" k2="-1" k3="1"/>
<feColorMatrix type="matrix" values="0 0 0 0 1 0 0 0 0 1 0 0 0 0 1 0 0 0 0.25 0"/>
<feBlend mode="normal" in2="shape" result="effect1_innerShadow_0_1"/>
</filter>
<filter id="filter1_i_0_1" x="38" y="58" width="47" height="11" filterUnits="userSpaceOnUse" color-interpolation-filters="sRGB">
<feFlood flood-opacity="0" result="BackgroundImageFix"/>
<feBlend mode="normal" in="SourceGraphic" in2="BackgroundImageFix" result="shape"/>
<feColorMatrix in="SourceAlpha" type="matrix" values="0 0 0 0 0 0 0 0 0 0 0 0 0 0 0 0 0 0 127 0" result="hardAlpha"/>
<feOffset dy="4"/>
<feGaussianBlur stdDeviation="2"/>
<feComposite in2="hardAlpha" operator="arithmetic" k2="-1" k3="1"/>
<feColorMatrix type="matrix" values="0 0 0 0 1 0 0 0 0 1 0 0 0 0 1 0 0 0 0.25 0"/>
<feBlend mode="normal" in2="shape" result="effect1_innerShadow_0_1"/>
</filter>
</defs>
</svg>
